<svg width="255" height="60" viewBox="0 0 255 60" fill="none" xmlns="http://www.w3.org/2000/svg">
<path d="M34.5 56C49.6878 56 62 44.5833 62 30.5C62 16.4167 49.6878 5 34.5 5C19.3122 5 7 16.4167 7 30.5C7 44.5833 19.3122 56 34.5 56Z" fill="black"/>
<path d="M24.72 39.288C23.456 39.288 22.28 39.064 21.192 38.616C20.104 38.168 19.152 37.544 18.336 36.744C17.536 35.944 16.904 35.016 16.44 33.96C15.992 32.888 15.768 31.736 15.768 30.504C15.768 29.256 15.992 28.104 16.44 27.048C16.888 25.992 17.512 25.072 18.312 24.288C19.128 23.488 20.072 22.872 21.144 22.44C22.232 21.992 23.408 21.768 24.672 21.768C25.952 21.768 27.128 21.992 28.2 22.44C29.288 22.872 30.232 23.488 31.032 24.288C31.848 25.072 32.48 26 32.928 27.072C33.376 28.128 33.6 29.28 33.6 30.528C33.6 31.76 33.376 32.912 32.928 33.984C32.48 35.04 31.848 35.968 31.032 36.768C30.232 37.552 29.296 38.168 28.224 38.616C27.152 39.064 25.984 39.288 24.72 39.288ZM32.28 40.344L24.36 32.424L26.544 30.24L34.464 38.16L32.28 40.344ZM24.672 35.856C25.696 35.856 26.584 35.632 27.336 35.184C28.088 34.736 28.672 34.112 29.088 33.312C29.52 32.496 29.736 31.56 29.736 30.504C29.736 29.704 29.616 28.984 29.376 28.344C29.136 27.688 28.792 27.128 28.344 26.664C27.896 26.184 27.36 25.824 26.736 25.584C26.128 25.328 25.44 25.2 24.672 25.2C23.664 25.2 22.784 25.424 22.032 25.872C21.28 26.304 20.688 26.92 20.256 27.72C19.84 28.504 19.632 29.432 19.632 30.504C19.632 31.304 19.752 32.032 19.992 32.688C20.232 33.344 20.576 33.912 21.024 34.392C21.472 34.856 22 35.216 22.608 35.472C23.232 35.728 23.92 35.856 24.672 35.856Z" fill="white"/>
<path d="M47.384 22.75L42.656 30.31H42.2L35.672 39.694H40.16L44.816 32.59H45.272L51.8 22.75H47.384ZM35.36 22.75L41.624 31.822L44.528 30.19L39.656 22.75H35.36ZM45.416 30.742L42.512 32.374L47.216 39.694H51.512L45.416 30.742Z" fill="#00CED1"/>
<path d="M86.01 47.504C83.798 47.504 81.74 47.112 79.836 46.328C77.932 45.544 76.266 44.452 74.838 43.052C73.438 41.652 72.332 40.028 71.52 38.18C70.736 36.304 70.344 34.288 70.344 32.132C70.344 29.948 70.736 27.932 71.52 26.084C72.304 24.236 73.396 22.626 74.796 21.254C76.224 19.854 77.876 18.776 79.752 18.02C81.656 17.236 83.714 16.844 85.926 16.844C88.166 16.844 90.224 17.236 92.1 18.02C94.004 18.776 95.656 19.854 97.056 21.254C98.484 22.626 99.59 24.25 100.374 26.126C101.158 27.974 101.55 29.99 101.55 32.174C101.55 34.33 101.158 36.346 100.374 38.222C99.59 40.07 98.484 41.694 97.056 43.094C95.656 44.466 94.018 45.544 92.142 46.328C90.266 47.112 88.222 47.504 86.01 47.504ZM99.24 49.352L85.38 35.492L89.202 31.67L103.062 45.53L99.24 49.352ZM85.926 41.498C87.718 41.498 89.272 41.106 90.588 40.322C91.904 39.538 92.926 38.446 93.654 37.046C94.41 35.618 94.788 33.98 94.788 32.132C94.788 30.732 94.578 29.472 94.158 28.352C93.738 27.204 93.136 26.224 92.352 25.412C91.568 24.572 90.63 23.942 89.538 23.522C88.474 23.074 87.27 22.85 85.926 22.85C84.162 22.85 82.622 23.242 81.306 24.026C79.99 24.782 78.954 25.86 78.198 27.26C77.47 28.632 77.106 30.256 77.106 32.132C77.106 33.532 77.316 34.806 77.736 35.954C78.156 37.102 78.758 38.096 79.542 38.936C80.326 39.748 81.25 40.378 82.314 40.826C83.406 41.274 84.61 41.498 85.926 41.498ZM114.752 47.462C112.876 47.462 111.21 47.084 109.754 46.328C108.326 45.544 107.206 44.48 106.394 43.136C105.582 41.764 105.176 40.196 105.176 38.432V26.588H111.602V38.348C111.602 39.048 111.714 39.65 111.938 40.154C112.19 40.658 112.554 41.05 113.03 41.33C113.506 41.61 114.08 41.75 114.752 41.75C115.704 41.75 116.46 41.456 117.02 40.868C117.58 40.252 117.86 39.412 117.86 38.348V26.588H124.286V38.39C124.286 40.182 123.88 41.764 123.068 43.136C122.256 44.48 121.136 45.544 119.708 46.328C118.28 47.084 116.628 47.462 114.752 47.462ZM136.847 47.42C134.971 47.42 133.291 46.958 131.807 46.034C130.351 45.11 129.189 43.85 128.321 42.254C127.481 40.658 127.061 38.838 127.061 36.794C127.061 34.75 127.481 32.93 128.321 31.334C129.189 29.738 130.351 28.478 131.807 27.554C133.291 26.63 134.971 26.168 136.847 26.168C138.219 26.168 139.451 26.434 140.543 26.966C141.663 27.498 142.573 28.24 143.273 29.192C143.973 30.116 144.365 31.18 144.449 32.384V41.204C144.365 42.408 143.973 43.486 143.273 44.438C142.601 45.362 141.705 46.09 140.585 46.622C139.465 47.154 138.219 47.42 136.847 47.42ZM138.149 41.624C139.521 41.624 140.627 41.176 141.467 40.28C142.307 39.356 142.727 38.194 142.727 36.794C142.727 35.842 142.531 35.002 142.139 34.274C141.775 33.546 141.243 32.986 140.543 32.594C139.871 32.174 139.087 31.964 138.191 31.964C137.295 31.964 136.497 32.174 135.797 32.594C135.125 32.986 134.579 33.546 134.159 34.274C133.767 35.002 133.571 35.842 133.571 36.794C133.571 37.718 133.767 38.544 134.159 39.272C134.551 40 135.097 40.574 135.797 40.994C136.497 41.414 137.281 41.624 138.149 41.624ZM142.475 47V41.498L143.441 36.542L142.475 31.586V26.588H148.775V47H142.475ZM153.299 47V16.508H159.725V47H153.299ZM164.25 47V26.588H170.676V47H164.25ZM167.484 23.774C166.476 23.774 165.636 23.438 164.964 22.766C164.32 22.066 163.998 21.226 163.998 20.246C163.998 19.238 164.32 18.398 164.964 17.726C165.636 17.054 166.476 16.718 167.484 16.718C168.492 16.718 169.318 17.054 169.962 17.726C170.606 18.398 170.928 19.238 170.928 20.246C170.928 21.226 170.606 22.066 169.962 22.766C169.318 23.438 168.492 23.774 167.484 23.774ZM178.1 47V18.146H184.526V47H178.1ZM173.48 32.048V26.588H189.146V32.048H173.48ZM200.093 47.42C198.217 47.42 196.537 46.958 195.053 46.034C193.597 45.11 192.435 43.85 191.567 42.254C190.727 40.658 190.307 38.838 190.307 36.794C190.307 34.75 190.727 32.93 191.567 31.334C192.435 29.738 193.597 28.478 195.053 27.554C196.537 26.63 198.217 26.168 200.093 26.168C201.465 26.168 202.697 26.434 203.789 26.966C204.909 27.498 205.819 28.24 206.519 29.192C207.219 30.116 207.611 31.18 207.695 32.384V41.204C207.611 42.408 207.219 43.486 206.519 44.438C205.847 45.362 204.951 46.09 203.831 46.622C202.711 47.154 201.465 47.42 200.093 47.42ZM201.395 41.624C202.767 41.624 203.873 41.176 204.713 40.28C205.553 39.356 205.973 38.194 205.973 36.794C205.973 35.842 205.777 35.002 205.385 34.274C205.021 33.546 204.489 32.986 203.789 32.594C203.117 32.174 202.333 31.964 201.437 31.964C200.541 31.964 199.743 32.174 199.043 32.594C198.371 32.986 197.825 33.546 197.405 34.274C197.013 35.002 196.817 35.842 196.817 36.794C196.817 37.718 197.013 38.544 197.405 39.272C197.797 40 198.343 40.574 199.043 40.994C199.743 41.414 200.527 41.624 201.395 41.624ZM205.721 47V41.498L206.687 36.542L205.721 31.586V26.588H212.021V47H205.721ZM235.949 47L227.675 33.77H226.877L215.453 17.348H223.307L231.455 29.78H232.253L243.677 47H235.949ZM214.907 47L225.869 31.124L230.951 33.98L222.425 47H214.907ZM232.505 33.014L227.423 30.158L235.655 17.348H243.173L232.505 33.014Z" fill="black"/>
</svg>
